Coordinates
version=1
nRows=6
nColumns=63
inDegrees=yes

Units are S.I. units (second, meters, Newtons, ...)
If the header above contains a line with 'inDegrees', this indicates whether rotational values are in degrees (yes) or radians (no).

endheader
time	pelvis_tilt	pelvis_list	pelvis_rotation	pelvis_tx	pelvis_ty	pelvis_tz	hip_flexion_r	hip_adduction_r	hip_rotation_r	knee_angle_r	knee_angle_r_beta	ankle_angle_r	subtalar_angle_r	mtp_angle_r	hip_flexion_l	hip_adduction_l	hip_rotation_l	knee_angle_l	knee_angle_l_beta	ankle_angle_l	subtalar_angle_l	mtp_angle_l	L5_S1_Flex_Ext	L5_S1_Lat_Bending	L5_S1_axial_rotation	L4_L5_Flex_Ext	L4_L5_Lat_Bending	L4_L5_axial_rotation	L3_L4_Flex_Ext	L3_L4_Lat_Bending	L3_L4_axial_rotation	L2_L3_Flex_Ext	L2_L3_Lat_Bending	L2_L3_axial_rotation	L1_L2_Flex_Ext	L1_L2_Lat_Bending	L1_L2_axial_rotation	L1_T12_Flex_Ext	L1_T12_Lat_Bending	L1_T12_axial_rotation	Abs_r3	Abs_r2	Abs_r1	Abs_t1	Abs_t2	neck_flexion	neck_bending	neck_rotation	arm_flex_r	arm_add_r	arm_rot_r	elbow_flex_r	pro_sup_r	wrist_flex_r	wrist_dev_r	arm_flex_l	arm_add_l	arm_rot_l	elbow_flex_l	pro_sup_l	wrist_flex_l	wrist_dev_l
      0.00000000	     -2.63404345	     -4.65279923	     92.82387329	      0.25607195	      0.53097735	      1.10187018	      3.70332256	     -3.34882448	    -10.59480353	     16.65559866	      0.29069504	     32.11397629	     16.56889669	      0.00000000	      1.45456263	      1.95470672	     -4.90170202	      2.54827362	      0.04447576	     26.94688551	     -1.59900253	      0.00000000	      0.08020237	     -0.10862571	      0.18350775	      0.14894382	     -0.14447219	      0.19497699	      0.13176447	     -0.26411254	      0.19497699	      0.09166329	     -0.26411254	      0.16056928	      0.07447592	     -0.22150954	      0.14910005	      0.04582763	     -0.16826122	      0.13763081	      0.57287751	     -1.22879570	      1.02061506	      0.00000000	      0.00000000	     25.87232717	     -0.11665928	      7.34339756	     16.15173784	    -10.87117905	     79.02317536	     42.36461256	     88.79489672	    -16.06479160	     -2.90748625	     16.07071825	     -8.64673188	     81.18478783	     41.14709688	     51.32214943	      2.15094891	     -7.06316111
      0.01694915	     -2.70763602	     -4.53030441	     93.30561676	      0.25559388	      0.53095149	      1.10133740	      3.33029459	     -3.41287458	    -11.25221934	     16.33241964	      0.28505450	     31.22398897	     16.67969736	      0.00000000	      1.24569469	      2.19760962	      0.05958364	      3.05278046	      0.05328107	     25.71324815	     -9.76851244	      0.00000000	      0.05819547	     -0.13288094	      0.11502770	      0.10807480	     -0.17673165	      0.12221693	      0.09560933	     -0.32308672	      0.12221693	      0.06651160	     -0.32308672	      0.10064924	      0.05404031	     -0.27097082	      0.09346001	      0.03325289	     -0.20583258	      0.08627078	      0.41568440	     -1.50317580	      0.63974956	      0.00000000	      0.00000000	     24.75335984	      0.94019143	      6.79964855	     16.81813016	    -10.63669545	     80.86014375	     42.09787984	     88.99072746	    -18.10269195	     -4.20726639	     16.17672723	     -8.73215081	     81.42589869	     41.22396543	     48.08285667	      2.34469443	     -7.68389014
      0.03389831	     -2.84540100	     -4.43046689	     93.49069663	      0.25544002	      0.53085640	      1.10065756	      3.02901780	     -3.54501093	    -11.62431860	     16.12975040	      0.28151725	     30.50223090	     16.66266304	      0.00000000	      1.16752029	      2.35812255	     -0.09626577	      3.66836643	      0.06402507	     25.92035291	    -10.77446597	      0.00000000	      0.04461761	     -0.16011502	      0.09581237	      0.08285936	     -0.21295298	      0.10180065	      0.07330227	     -0.38930367	      0.10180065	      0.05099346	     -0.38930367	      0.08383583	      0.04143191	     -0.32650656	      0.07784755	      0.02549450	     -0.24801817	      0.07185928	      0.31869910	     -1.81125318	      0.53287968	      0.00000000	      0.00000000	     23.97541683	      1.65615658	      6.41511998	     16.82974775	    -10.59014851	     80.62228682	     42.30378593	     89.03661749	    -18.13256904	     -4.32027307	     16.02891809	     -8.85445401	     80.76722325	     41.30433421	     47.53845447	      2.57052756	     -8.00613096
      0.05084746	     -2.94397560	     -4.51204813	     94.01906541	      0.25462066	      0.53057600	      1.10035455	      2.90732130	     -3.72739532	    -12.64074474	     16.03090350	      0.27979205	     29.93290789	     16.91584833	      0.00000000	      1.20888494	      2.60718473	      2.65102106	      3.85478821	      0.06727875	     24.70913620	    -15.40719151	      0.00000000	      0.05472442	     -0.17755368	     -0.00767740	      0.10162873	     -0.23614640	     -0.00815723	      0.08990676	     -0.43170403	     -0.00815723	      0.06254454	     -0.43170403	     -0.00671772	      0.05081710	     -0.36206747	     -0.00623788	      0.03126954	     -0.27503066	     -0.00575805	      0.39089108	     -2.00852278	     -0.04269937	      0.00000000	      0.00000000	     23.71103948	      2.08366370	      6.35260391	     16.48213221	    -10.58942267	     79.22808361	     42.58496253	     88.99155170	    -17.03817364	     -3.89220847	     15.95535000	     -9.01715854	     80.57083043	     41.52080033	     44.89431208	      3.09516299	     -8.03382597
      0.06779661	     -3.16308295	     -4.59167724	     94.02809242	      0.25461751	      0.53029985	      1.10000223	      2.89925371	     -4.01030152	    -13.05178793	     16.06263547	      0.28034588	     29.59129830	     17.08865936	      0.00000000	      1.28365060	      2.84440983	      1.83480451	      4.06284550	      0.07091003	     24.76770230	    -15.12512100	      0.00000000	      0.06996298	     -0.20883005	     -0.02023870	      0.12992824	     -0.27774397	     -0.02150362	      0.11494217	     -0.50774939	     -0.02150362	      0.07996069	     -0.50774939	     -0.01770886	      0.06496762	     -0.42584625	     -0.01644394	      0.03997684	     -0.32347775	     -0.01517902	      0.49973854	     -2.36232734	     -0.11256157	      0.00000000	      0.00000000	     23.50246063	      2.39023437	      6.32838625	     16.06806101	    -10.47697283	     78.05114730	     42.64406682	     88.86968434	    -16.81480450	     -3.84560954	     15.81351482	     -9.24211844	     80.17288723	     41.70027678	     44.45168043	      3.14528454	     -8.43012673
      0.08474576	     -3.28114433	     -4.59893489	     93.91954150	      0.25460840	      0.53008886	      1.09991372	      2.89431218	     -4.15095529	    -12.96668561	     16.13098437	      0.28153879	     29.35302085	     16.83815722	      0.00000000	      1.24710146	      3.00178824	      1.90730621	      4.05640389	      0.07079760	     24.40273124	    -16.05210166	      0.00000000	      0.06455262	     -0.22308468	      0.02309663	      0.11988067	     -0.29670262	      0.02454017	      0.10605350	     -0.54240808	      0.02454017	      0.07377719	     -0.54240808	      0.02020955	      0.05994356	     -0.45491427	      0.01876601	      0.03688537	     -0.34555816	      0.01732247	      0.46109292	     -2.52357848	      0.12845653	      0.00000000	      0.00000000	     23.80860481	      2.34329634	      6.10959384	     14.97911568	    -10.67937907	     74.12485487	     43.36895258	     88.65055284	    -13.37365950	     -2.11723130	     16.01469191	     -9.32032460	     80.75568936	     41.91323375	     42.20424827	      2.96230693	     -8.77024385
